PathFileType	4	(X/Y/Z)	C:/Users/opensim2020/Desktop/walking_exp_matlab/subject06_walking22_straight_02.trc																																																																																																																																		
DataRate	CameraRate	NumFrames	NumMarkers	Units	OrigDataRate	OrigDataStartFrame	OrigNumFrames																																																																																																																														
100	100	8	44	mm	100	1279	81																																																																																																																														
Frame#	Time	LFHD			RFHD			LBHD			RBHD			C7			T10			CLAV			STRN			RBAK			LSHO			LUPA			LELB			LFRM			LWRA			LWRB			LFIN			RSHO			RUPA			RELB			RFRM			RWRA			RWRB			RFIN			LASI			RASI			LPSI			RPSI			LTHI			LKNE			LTIB			LANK			LHEE			LTOE			RTHI			RKNE			RTIB			RANK			RHEE			RTOE			*39			*40			*41			*42			*43		
		X1	Y1	Z1	X2	Y2	Z2	X3	Y3	Z3	X4	Y4	Z4	X5	Y5	Z5	X6	Y6	Z6	X7	Y7	Z7	X8	Y8	Z8	X9	Y9	Z9	X10	Y10	Z10	X11	Y11	Z11	X12	Y12	Z12	X13	Y13	Z13	X14	Y14	Z14	X15	Y15	Z15	X16	Y16	Z16	X17	Y17	Z17	X18	Y18	Z18	X19	Y19	Z19	X20	Y20	Z20	X21	Y21	Z21	X22	Y22	Z22	X23	Y23	Z23	X24	Y24	Z24	X25	Y25	Z25	X26	Y26	Z26	X27	Y27	Z27	X28	Y28	Z28	X29	Y29	Z29	X30	Y30	Z30	X31	Y31	Z31	X32	Y32	Z32	X33	Y33	Z33	X34	Y34	Z34	X35	Y35	Z35	X36	Y36	Z36	X37	Y37	Z37	X38	Y38	Z38	X39	Y39	Z39	X40	Y40	Z40	X41	Y41	Z41	X42	Y42	Z42	X43	Y43	Z43	X44	Y44	Z44
																																																																																																																																					
21	0.2	-452.85184	1644.92334	919.05359	-448.05762	1639.97192	1051.47461	-587.22723	1594.30212	926.91656	-580.40253	1594.05457	1055.86914	-589.85968	1439.51318	980.08661	-634.05103	1111.39075	986.95215	-482.27368	1358.64343	989.53571	-448.75729	1181.59265	985.53564	-674.69666	1271.15417	1049.52124	-523.79999	1390.13428	823.69879	-514.6272	1186.1687	757.36652	-505.40604	1073.22974	749.02466	-423.76324	947.10211	738.24152	-315.7489	884.70819	786.27594	-365.76593	843.75549	756.14429	-287.34818	799.06128	758.04443	-542.34625	1393.11963	1146.42371	-629.01843	1213.28259	1231.84778	-652.25653	1094.79871	1253.20068	-664.9469	976.66534	1279.53296	-630.47162	826.32556	1264.96838	-689.65082	841.9043	1297.10413	-671.93744	759.25409	1305.72144	-463.08847	937.08331	887.73096	-458.50757	960.18604	1107.91809	-619.12488	970.81848	916.64001	-611.66089	987.73444	1084.13489	-516.06879	615.30682	847.09583	-497.25284	454.39783	868.87579	-693.31506	311.45084	880.58905	-835.55823	218.70511	920.55353	-868.59564	246.07581	964.93274	-792.24994	79.05647	934.5351	-462.25433	634.75177	1166.38977	-426.2807	516.06964	1134.11572	-470.05545	252.78629	1134.271	-499.57513	69.4177	1091.54944	-543.09088	45.08603	1050.1781	-349.49326	33.68404	1085.45752	-549.46021	1688.34375	980.47852	NaN	NaN	NaN	NaN	NaN	NaN	NaN	NaN	NaN	NaN	NaN	NaN
22	0.21	-437.56226	1647.28882	918.32654	-432.07541	1642.68481	1050.72168	-571.95636	1596.98865	927.10699	-564.38538	1597.05713	1056.00134	-574.45319	1442.25623	980.79095	-618.61328	1114.08301	989.06152	-466.81274	1361.30847	989.57397	-433.38394	1184.3573	985.87866	-658.72388	1274.00159	1051.59021	-509.87015	1392.4873	823.92609	-503.54514	1188.16101	757.86169	-495.4856	1074.97351	750.24982	-418.08829	945.72314	737.57104	-312.11148	878.54474	784.4281	-364.20233	840.21967	754.35803	-287.7265	792.15973	754.96637	-525.62024	1396.26001	1146.77844	-609.70001	1215.68396	1233.66321	-630.96643	1096.76941	1254.99805	-640.3255	978.36169	1281.18237	-602.00397	829.26965	1265.44055	-661.06171	842.90076	1298.52759	-640.27893	760.95551	1306.98047	-447.55423	940.84625	888.6629	-442.83762	962.53577	1108.4928	-603.68903	973.83441	917.65698	-595.26538	989.81775	1085.24072	-492.8963	619.80481	847.2666	-468.32446	459.55151	869.29999	-660.69769	311.56897	880.74652	-800.04901	214.07527	920.67249	-834.66656	239.33191	965.49567	-749.10754	77.67155	932.01715	-451.86841	635.63501	1165.84021	-418.77292	515.82404	1134.01648	-465.79758	252.36824	1133.50525	-499.0444	69.61487	1091.29163	-542.93097	45.41625	1050.03809	-349.34018	33.70974	1085.28162	-533.68042	1690.98914	980.09247	NaN	NaN	NaN	NaN	NaN	NaN	NaN	NaN	NaN	NaN	NaN	NaN
23	0.22	-422.31454	1649.40002	917.45746	-416.04477	1645.15088	1049.7887	-556.83447	1599.4624	927.1651	-548.41608	1599.87378	1056.01038	-559.17999	1444.68738	981.52911	-603.17401	1116.74133	991.10236	-451.474	1363.82898	989.53711	-418.05283	1186.99072	986.28265	-642.87347	1276.90295	1053.73474	-496.06906	1394.74866	824.25592	-492.01422	1190.24194	758.47021	-485.58145	1076.97144	751.19263	-412.89828	944.76923	737.44171	-309.211	872.59186	782.44873	-363.40952	836.93549	752.94336	-289.24786	785.37537	752.32501	-509.09625	1399.37134	1147.09143	-590.80389	1218.11584	1235.07935	-609.77362	1098.83386	1256.66309	-615.54968	980.26227	1282.65283	-573.25366	832.56964	1265.75024	-632.0199	844.07904	1299.79834	-608.50134	763.2077	1307.93896	-431.79868	944.53802	889.76385	-427.37369	965.06464	1109.22522	-587.98761	976.78839	918.34943	-579.54034	991.90851	1085.7157	-469.85092	624.15387	847.25739	-439.81247	464.88437	869.61414	-628.12213	311.25723	881.00616	-763.724	208.00624	920.91705	-799.68982	230.73843	966.45544	-704.8092	75.47565	929.70178	-440.46506	636.41864	1165.61914	-411.11496	515.28107	1133.6582	-462.05984	251.97836	1132.86316	-498.66498	69.887	1091.13171	-542.83087	45.78625	1049.97339	-349.21796	33.76167	1085.07068	-518.12091	1693.71045	979.97675	NaN	NaN	NaN	NaN	NaN	NaN	NaN	NaN	NaN	NaN	NaN	NaN
24	0.23	-407.20099	1651.10669	916.38251	-400.07715	1647.40991	1048.66199	-541.74219	1601.66553	927.0127	-532.53522	1602.52344	1055.92114	-544.00787	1446.77649	982.24872	-587.83624	1119.21594	993.02472	-436.16748	1366.14551	989.53558	-402.67944	1189.42126	986.69073	-627.00873	1279.65735	1055.87659	-482.29111	1396.84253	824.62518	-480.02689	1192.35168	759.12152	-476.10956	1078.85645	751.94995	-408.05811	944.13782	736.99072	-306.94977	866.83673	780.25281	-363.18192	833.74725	750.96808	-291.3475	778.95056	748.98016	-492.6037	1402.28259	1147.32788	-571.72345	1220.39661	1236.7644	-588.69391	1100.901	1258.2301	-590.78229	982.26416	1284.04602	-544.26849	836.08685	1265.96558	-602.79559	845.67108	1301.01843	-576.2619	765.79413	1308.84619	-416.41898	947.91052	891.10132	-412.11685	967.32013	1110.13586	-572.15259	979.52386	918.87518	-563.85181	993.87952	1086.10034	-447.32526	628.87207	847.13031	-411.97751	470.32297	869.80859	-595.5166	310.26633	881.58374	-726.30957	200.61179	921.09338	-763.81909	220.65598	967.12482	-658.75244	73.11198	927.48834	-429.25714	636.54871	1165.06396	-403.56757	514.44373	1133.05261	-458.84161	251.70172	1132.60852	-498.20557	70.09584	1090.94592	-542.66705	46.08911	1049.88672	-349.12039	33.80152	1084.89685	-502.40448	1695.99011	979.3562	NaN	NaN	NaN	NaN	NaN	NaN	NaN	NaN	NaN	NaN	NaN	NaN
25	0.24	-392.14856	1652.63953	915.23932	-384.18362	1649.42944	1047.47278	-526.69318	1603.55444	927.01825	-516.63	1604.92261	1055.71167	-528.9726	1448.50012	982.97723	-572.46753	1121.45947	994.75	-421.00058	1368.20313	989.61108	-387.21188	1191.61169	987.19147	-611.11835	1282.14709	1058.02869	-468.61362	1398.68823	824.99377	-467.79947	1194.18677	759.75671	-466.32751	1080.58972	752.77063	-403.50992	943.22339	736.41656	-305.21899	861.15442	777.99078	-363.15607	831.17926	749.16876	-294.35294	772.63104	746.18304	-476.27048	1404.97412	1147.55347	-552.94586	1222.61597	1238.35278	-567.82019	1102.86621	1259.76331	-566.11835	984.27356	1285.34973	-515.07202	839.78088	1266.1189	-573.33887	847.29602	1301.95825	-543.89203	768.48322	1309.30981	-399.87088	951.31354	892.04889	-397.04172	969.16522	1111.21497	-556.27551	982.04224	919.31818	-548.09589	995.55353	1086.49548	-424.98151	633.25818	846.47412	-384.96017	475.70221	869.88177	-563.08051	308.82068	881.71576	-688.13934	192.45071	921.34436	-726.57526	209.38026	967.93304	-611.8844	70.26508	924.97894	-418.23904	636.38538	1164.51404	-396.25763	513.422	1132.43982	-456.43033	251.65068	1132.08789	-497.58844	70.14362	1090.33167	-542.47253	46.40881	1049.64807	-348.95145	33.84509	1084.69092	-486.86618	1698.00415	978.61633	NaN	NaN	NaN	NaN	NaN	NaN	NaN	NaN	NaN	NaN	NaN	NaN
26	0.25	-377.17685	1653.77869	913.95227	-368.33426	1651.25574	1046.14001	-511.71216	1605.12158	926.89032	-500.87131	1607.11169	1055.53149	-513.83972	1449.98352	983.58698	-557.07031	1123.40649	996.31409	-405.83557	1369.96924	989.737	-371.75439	1193.48572	987.7113	-595.30896	1284.36218	1060.12122	-454.79837	1400.15784	825.44122	-455.61261	1195.73169	760.2738	-456.6279	1082.10242	753.40381	-399.21732	942.35864	735.59143	-303.84433	855.68945	775.53833	-363.70526	828.71027	746.98566	-297.40686	766.97937	742.92212	-460.00055	1407.36768	1147.76648	-534.12524	1224.43872	1239.72986	-547.15491	1104.64099	1261.30518	-541.53552	986.23724	1286.60852	-485.66977	844.03613	1266.37463	-543.76349	849.13428	1302.82507	-511.27036	771.53522	1309.68921	-383.98361	954.11285	893.11719	-381.69086	970.5921	1112.21838	-540.45935	984.26398	919.8385	-532.50092	996.96417	1087.01648	-402.86588	637.46259	845.79993	-358.76785	481.0831	869.84589	-529.93842	306.52487	882.34662	-648.84674	183.2475	921.73608	-688.01514	197.12941	968.82208	-564.24548	67.23849	922.86383	-407.94504	635.90295	1163.95117	-389.40164	512.25684	1131.95422	-454.15021	251.60481	1131.97827	-497.13071	70.45432	1089.90735	-542.3941	46.95344	1049.38892	-348.76965	33.76372	1084.47327	-471.34515	1699.73499	977.73053	NaN	NaN	NaN	NaN	NaN	NaN	NaN	NaN	NaN	NaN	NaN	NaN
27	0.26	-362.28238	1654.5946	912.65674	-352.48074	1652.7666	1044.73694	-496.80698	1606.3739	926.66858	-485.44315	1609.08569	1055.50952	-498.73294	1451.224	984.2182	-541.66718	1124.97742	997.77527	-390.66064	1371.43958	989.80878	-356.2963	1195.03125	988.16083	-579.46674	1286.09448	1062.2229	-440.82324	1401.29785	825.84247	-443.64136	1196.91772	760.57452	-446.86951	1083.35596	753.84845	-395.49557	941.53998	734.15765	-302.80774	850.28021	772.98456	-364.2587	826.51428	745.02698	-300.98242	761.40997	739.96655	-443.84573	1409.38843	1147.99927	-515.47687	1226.20581	1241.45984	-526.76434	1106.2533	1262.86719	-517.11987	988.15417	1287.83411	-456.57925	847.92633	1265.90173	-514.15234	851.09271	1303.49719	-478.56171	774.72339	1309.71594	-368.08704	956.48254	894.12189	-365.29471	971.87518	1113.50427	-524.69922	986.13403	920.41779	-516.83154	997.93036	1087.59106	-381.13654	641.54865	845.06177	-333.34424	486.32922	869.78125	-497.15225	303.72614	882.41071	-608.49219	173.45659	922.18286	-647.98969	184.33743	969.96045	-516.43646	63.79038	920.62219	-398.37939	635.10327	1163.31787	-382.85904	511.07343	1131.72913	-452.02054	251.54704	1131.7052	-496.71371	70.80592	1089.45251	-542.17493	47.56087	1049.01709	-348.49814	33.65102	1084.21899	-455.96121	1701.2373	976.75421	NaN	NaN	NaN	NaN	NaN	NaN	NaN	NaN	NaN	NaN	NaN	NaN
28	0.27	-347.39383	1655.12317	911.30414	-336.71445	1654.03284	1043.39795	-481.9404	1607.2959	926.43457	-469.70642	1610.68896	1055.17957	-483.54974	1452.22705	984.83484	-526.26465	1126.13818	999.16644	-375.56674	1372.55188	989.85498	-340.75412	1196.27319	988.65259	-563.61218	1287.33447	1064.14917	-426.68753	1402.04517	826.20575	-431.9162	1197.73181	760.80261	-437.05255	1084.22412	754.14496	-391.40027	940.46173	733.66199	-302.03232	845.05957	770.39465	-364.79126	824.2309	743.2016	-304.80832	756.21747	737.01825	-427.62189	1411.05383	1148.24377	-496.81381	1227.66528	1243.04285	-506.51425	1107.55969	1264.41846	-492.84689	989.96704	1289.02771	-427.11658	852.41675	1265.86792	-484.3978	853.05707	1303.86377	-445.87088	778.2074	1309.52039	-352.51947	958.23663	895.21777	-351.43008	971.77179	1113.98743	-508.9805	987.62451	921.01654	-501.27686	998.50037	1088.22449	-359.49048	645.41443	844.28326	-308.6814	491.28021	869.71368	-463.79153	300.13776	882.66913	-567.22113	163.27792	922.69513	-606.58539	171.06255	971.00128	-468.22592	60.08339	918.30951	-388.87961	634.18701	1162.34106	-376.42188	509.79419	1131.87097	-449.56339	251.33051	1131.32751	-496.20804	71.1808	1089.05127	-541.91296	48.23144	1048.60706	-348.16913	33.47281	1084.04187	-440.55731	1702.33252	975.77197	NaN	NaN	NaN	NaN	NaN	NaN	NaN	NaN	NaN	NaN	NaN	NaN
